<?xml version="1.0" encoding="UTF-8" standalone="no"?>
<svg
   xmlns:dc="http://purl.org/dc/elements/1.1/"
   xmlns:cc="http://creativecommons.org/ns#"
   xmlns:rdf="http://www.w3.org/1999/02/22-rdf-syntax-ns#"
   xmlns:svg="http://www.w3.org/2000/svg"
   xmlns="http://www.w3.org/2000/svg"
   xmlns:xlink="http://www.w3.org/1999/xlink"
   xmlns:sodipodi="http://sodipodi.sourceforge.net/DTD/sodipodi-0.dtd"
   xmlns:inkscape="http://www.inkscape.org/namespaces/inkscape"
   viewBox="0 0 200 200"
   id="svg3372"
   version="1.1"
   inkscape:version="0.91 r"
   sodipodi:docname="ptb-logo.svg"
   width="200"
   height="200"
   inkscape:export-filename="/home/jannes/Dropbox/Dokumente/ptb-logo/logo/png/ptb-logo_1024.png"
   inkscape:export-xdpi="460.79999"
   inkscape:export-ydpi="460.79999">
  <metadata
     id="metadata3396">
    <rdf:RDF>
      <cc:Work
         rdf:about="">
        <dc:format>image/svg+xml</dc:format>
        <dc:type
           rdf:resource="http://purl.org/dc/dcmitype/StillImage" />
        <dc:title />
      </cc:Work>
    </rdf:RDF>
  </metadata>
  <sodipodi:namedview
     pagecolor="#ffffff"
     bordercolor="#666666"
     borderopacity="1"
     objecttolerance="10"
     gridtolerance="10"
     guidetolerance="10"
     inkscape:pageopacity="0"
     inkscape:pageshadow="2"
     inkscape:window-width="1920"
     inkscape:window-height="1029"
     id="namedview3394"
     showgrid="false"
     inkscape:zoom="2.8284271"
     inkscape:cx="46.246207"
     inkscape:cy="137.19525"
     inkscape:window-x="0"
     inkscape:window-y="0"
     inkscape:window-maximized="1"
     inkscape:current-layer="layer4" />
  <defs
     id="defs3374">
    <linearGradient
       inkscape:collect="always"
       xlink:href="#linearGradient4689"
       id="linearGradient1478"
       gradientUnits="userSpaceOnUse"
       gradientTransform="matrix(1.2697887,0,0,1.2820478,-59.165232,24.967647)"
       x1="26.648937"
       y1="20.603781"
       x2="158.3134"
       y2="141.5517" />
    <linearGradient
       id="linearGradient4689">
      <stop
         style="stop-color:#5a9fd4;stop-opacity:1;"
         offset="0"
         id="stop4691" />
      <stop
         style="stop-color:#306998;stop-opacity:1;"
         offset="1"
         id="stop4693" />
    </linearGradient>
    <linearGradient
       gradientUnits="userSpaceOnUse"
       gradientTransform="matrix(0.55219931,0,0,0.46315215,37.264455,41.82163)"
       id="w-4"
       x1="123.64119"
       y1="131.02764"
       x2="146.52715"
       y2="174.70814">
      <stop
         stop-color="#eff7fc"
         offset="0"
         id="stop12-9" />
      <stop
         stop-color="#fff"
         offset="1"
         id="stop14-5" />
    </linearGradient>
  </defs>
  <g
     inkscape:groupmode="layer"
     id="layer2"
     inkscape:label="Python-Outline">
    <path
       sodipodi:nodetypes="cscscscccccccsccsccsccscccsssss"
       inkscape:connector-curvature="0"
       id="path4153"
       d="m 160.54393,161.5468 0,-122.286916 c 0,-16.401855 -13.9517,-22.669911 -30.37597,-25.407306 -10.39679,-1.730693 -21.18372,-2.514772 -31.530138,-2.466693 -10.346375,0.04809 -20.227661,0.928293 -28.92155,2.466693 -25.611147,4.524631 -30.260199,13.996407 -30.260199,31.461557 l 0,23.065814 60.522642,0 0,7.688366 -60.522642,0 0,85.478215 c -0.0038,3.85857 2.526745,6.0582 6.508473,6.05451 l 8.627509,0 0,11.24792 c 0,4.33326 2.603824,8.12891 7.558531,9.31573 5.679237,1.36897 9.224867,1.4297 15.154901,0 4.414088,-1.05986 7.558531,-3.59187 7.558531,-7.9251 l 0,-12.63855 30.271962,0 0,11.24792 c 0,4.33326 2.60384,8.12891 7.55854,9.31573 5.67923,1.36897 9.22486,1.4297 15.15489,0 4.41409,-1.05986 7.55853,-3.59187 7.55853,-7.9251 l 0,-12.63855 9.08159,0 c 3.08781,7.4e-4 6.05782,-2.61639 6.0544,-6.05424 z M 65.908566,29.936923 c 6.251536,0 11.356716,5.187436 11.356716,11.567201 0,6.357127 -5.10518,11.49861 -11.356716,11.49861 -6.273925,-1.2e-5 -11.356716,-5.141483 -11.356716,-11.49861 0,-6.379765 5.082791,-11.567201 11.356716,-11.567201 z"
       style="display:inline;fill:none;fill-opacity:1;stroke:#ffffff;stroke-width:5.68301105;stroke-miterlimit:4;stroke-dasharray:none;stroke-opacity:1" />
  </g>
  <g
     inkscape:groupmode="layer"
     id="layer1"
     inkscape:label="Python"
     style="display:inline"
     transform="translate(0,-40)">
    <path
       style="fill:url(#linearGradient1478);fill-opacity:1;stroke:#ffffff;stroke-width:0;stroke-miterlimit:4;stroke-dasharray:none;stroke-opacity:1"
       d="m 160.54393,201.5468 0,-122.286916 c 0,-16.401855 -13.9517,-22.669911 -30.37597,-25.407306 -10.39679,-1.730693 -21.18372,-2.514772 -31.530138,-2.466693 -10.346375,0.04809 -20.227661,0.928293 -28.92155,2.466693 -25.611147,4.524631 -30.260199,13.996407 -30.260199,31.461557 l 0,23.065815 60.522642,0 0,7.68836 -60.522642,0 0,85.47822 c -0.0038,3.85857 2.526745,6.0582 6.508473,6.05451 l 8.627509,0 0,11.24792 c 0,4.33326 2.603824,8.12891 7.558531,9.31573 5.679237,1.36897 9.224867,1.4297 15.154901,0 4.414088,-1.05986 7.558531,-3.59187 7.558531,-7.9251 l 0,-12.63855 30.271962,0 0,11.24792 c 0,4.33326 2.60384,8.12891 7.55854,9.31573 5.67923,1.36897 9.22486,1.4297 15.15489,0 4.41409,-1.05986 7.55853,-3.59187 7.55853,-7.9251 l 0,-12.63855 9.08159,0 c 3.08781,7.4e-4 6.05782,-2.61639 6.0544,-6.05424 z M 65.908566,69.936923 c 6.251536,0 11.356716,5.187436 11.356716,11.567201 0,6.357127 -5.10518,11.49861 -11.356716,11.49861 -6.273925,-1.2e-5 -11.356716,-5.141483 -11.356716,-11.49861 0,-6.379765 5.082791,-11.567201 11.356716,-11.567201 z"
       id="path1948"
       inkscape:connector-curvature="0"
       sodipodi:nodetypes="cscscscccccccsccsccsccscccsssss" />
  </g>
  <g
     inkscape:groupmode="layer"
     id="layer4"
     inkscape:label="Telegram"
     style="display:inline">
    <g
       id="g4305"
       transform="matrix(1.22464,0,0,1.22464,-21.767671,-7.3646984)">
      <path
         id="path18-6"
         d="m 86.824975,130.32256 c -1.966036,0 -1.631958,-0.74235 -2.310026,-2.61432 L 78.733461,108.68074 123.23678,82.2792"
         style="fill:#c8daea"
         inkscape:connector-curvature="0" />
      <path
         id="path20-9"
         d="m 86.824975,130.32256 c 1.517158,0 2.18749,-0.69385 3.034317,-1.51716 l 8.091518,-7.86799 -10.093156,-6.08633"
         style="fill:#a9c9dd"
         inkscape:connector-curvature="0" />
      <path
         id="path22-5"
         d="m 87.856642,114.8526 24.456598,18.06885 c 2.79081,1.53987 4.80504,0.7426 5.5002,-2.59105 l 9.95509,-46.91207 c 1.01923,-4.086315 -1.55766,-5.939676 -4.22751,-4.727568 L 65.084899,101.23119 c -3.990178,1.60045 -3.966915,3.82658 -0.727326,4.8185 l 15.00116,4.6821 34.729277,-21.9103 c 1.63949,-0.9942 3.14421,-0.4597 1.90919,0.6364"
         style="fill:url(#w-4)"
         inkscape:connector-curvature="0" />
    </g>
  </g>
</svg>
