<?xml version="1.0" encoding="UTF-8" standalone="no"?>
<svg
   xmlns:dc="http://purl.org/dc/elements/1.1/"
   xmlns:cc="http://creativecommons.org/ns#"
   xmlns:rdf="http://www.w3.org/1999/02/22-rdf-syntax-ns#"
   xmlns:svg="http://www.w3.org/2000/svg"
   xmlns="http://www.w3.org/2000/svg"
   xmlns:xlink="http://www.w3.org/1999/xlink"
   xmlns:sodipodi="http://sodipodi.sourceforge.net/DTD/sodipodi-0.dtd"
   xmlns:inkscape="http://www.inkscape.org/namespaces/inkscape"
   viewBox="0 0 200 200"
   id="svg3372"
   version="1.1"
   inkscape:version="0.91 r"
   sodipodi:docname="ptb-logo-channel.svg"
   width="200"
   height="200"
   inkscape:export-filename="/home/jannes/Dropbox/Dokumente/ptb-logo/ptb-logo-channel.png"
   inkscape:export-xdpi="460.79999"
   inkscape:export-ydpi="460.79999">
  <metadata
     id="metadata3396">
    <rdf:RDF>
      <cc:Work
         rdf:about="">
        <dc:format>image/svg+xml</dc:format>
        <dc:type
           rdf:resource="http://purl.org/dc/dcmitype/StillImage" />
        <dc:title />
      </cc:Work>
    </rdf:RDF>
  </metadata>
  <sodipodi:namedview
     pagecolor="#ffffff"
     bordercolor="#666666"
     borderopacity="1"
     objecttolerance="10"
     gridtolerance="10"
     guidetolerance="10"
     inkscape:pageopacity="0"
     inkscape:pageshadow="2"
     inkscape:window-width="1920"
     inkscape:window-height="1029"
     id="namedview3394"
     showgrid="false"
     inkscape:zoom="2.8284271"
     inkscape:cx="22.877089"
     inkscape:cy="108.16486"
     inkscape:window-x="0"
     inkscape:window-y="0"
     inkscape:window-maximized="1"
     inkscape:current-layer="layer4" />
  <defs
     id="defs3374">
    <linearGradient
       inkscape:collect="always"
       xlink:href="#linearGradient4689"
       id="linearGradient1478"
       gradientUnits="userSpaceOnUse"
       gradientTransform="matrix(1.2697887,0,0,1.2820478,-59.165227,24.967647)"
       x1="26.648937"
       y1="20.603781"
       x2="158.3134"
       y2="141.5517" />
    <linearGradient
       id="linearGradient4689">
      <stop
         style="stop-color:#5a9fd4;stop-opacity:1;"
         offset="0"
         id="stop4691" />
      <stop
         style="stop-color:#306998;stop-opacity:1;"
         offset="1"
         id="stop4693" />
    </linearGradient>
    <linearGradient
       gradientUnits="userSpaceOnUse"
       gradientTransform="matrix(0.55219931,0,0,0.46315215,37.264455,41.82163)"
       id="w-4"
       x1="123.64119"
       y1="131.02764"
       x2="146.52715"
       y2="174.70814">
      <stop
         stop-color="#eff7fc"
         offset="0"
         id="stop12-9" />
      <stop
         stop-color="#fff"
         offset="1"
         id="stop14-5" />
    </linearGradient>
  </defs>
  <g
     inkscape:groupmode="layer"
     id="layer2"
     inkscape:label="Python-Outline">
    <path
       sodipodi:nodetypes="cscscscccccccsccsccsccscccsssss"
       inkscape:connector-curvature="0"
       id="path4153"
       d="m 160.54393,161.5468 0,-122.286916 c 0,-16.401855 -13.9517,-22.669911 -30.37597,-25.407306 -10.39679,-1.730693 -21.18372,-2.514772 -31.530137,-2.466693 -10.34638,0.04809 -20.22766,0.928293 -28.92155,2.466693 -25.61115,4.524631 -30.2602,13.996407 -30.2602,31.461557 l 0,23.065814 60.52264,0 0,7.688366 -60.52264,0 0,85.478215 c -0.004,3.85857 2.52675,6.0582 6.50847,6.05451 l 8.62751,0 0,11.24792 c 0,4.33326 2.60383,8.12891 7.55853,9.31573 5.67924,1.36897 9.22487,1.4297 15.1549,0 4.41409,-1.05986 7.55854,-3.59187 7.55854,-7.9251 l 0,-12.63855 30.271957,0 0,11.24792 c 0,4.33326 2.60384,8.12891 7.55854,9.31573 5.67923,1.36897 9.22486,1.4297 15.15489,0 4.41409,-1.05986 7.55853,-3.59187 7.55853,-7.9251 l 0,-12.63855 9.08159,0 c 3.08781,7.4e-4 6.05782,-2.61639 6.0544,-6.05424 z M 65.908563,29.936923 c 6.25154,0 11.35672,5.187436 11.35672,11.567201 0,6.357127 -5.10518,11.49861 -11.35672,11.49861 -6.27392,-1.2e-5 -11.35671,-5.141483 -11.35671,-11.49861 0,-6.379765 5.08279,-11.567201 11.35671,-11.567201 z"
       style="display:inline;fill:none;fill-opacity:1;stroke:#ffffff;stroke-width:5.68301105;stroke-miterlimit:4;stroke-dasharray:none;stroke-opacity:1" />
  </g>
  <g
     inkscape:groupmode="layer"
     id="layer1"
     inkscape:label="Python"
     style="display:inline"
     transform="translate(0,-40)">
    <path
       style="fill:url(#linearGradient1478);fill-opacity:1;stroke:#ffffff;stroke-width:0;stroke-miterlimit:4;stroke-dasharray:none;stroke-opacity:1"
       d="m 160.54393,201.5468 0,-122.286916 c 0,-16.401855 -13.9517,-22.669911 -30.37597,-25.407306 -10.39679,-1.730693 -21.18372,-2.514772 -31.530137,-2.466693 -10.34638,0.04809 -20.22766,0.928293 -28.92155,2.466693 -25.61115,4.524631 -30.2602,13.996407 -30.2602,31.461557 l 0,23.065815 60.52264,0 0,7.68836 -60.52264,0 0,85.47822 c -0.004,3.85857 2.52675,6.0582 6.50847,6.05451 l 8.62751,0 0,11.24792 c 0,4.33326 2.60383,8.12891 7.55853,9.31573 5.67924,1.36897 9.22487,1.4297 15.1549,0 4.41409,-1.05986 7.55854,-3.59187 7.55854,-7.9251 l 0,-12.63855 30.271957,0 0,11.24792 c 0,4.33326 2.60384,8.12891 7.55854,9.31573 5.67923,1.36897 9.22486,1.4297 15.15489,0 4.41409,-1.05986 7.55853,-3.59187 7.55853,-7.9251 l 0,-12.63855 9.08159,0 c 3.08781,7.4e-4 6.05782,-2.61639 6.0544,-6.05424 z M 65.908563,69.936923 c 6.25154,0 11.35672,5.187436 11.35672,11.567201 0,6.357127 -5.10518,11.49861 -11.35672,11.49861 -6.27392,-1.2e-5 -11.35671,-5.141483 -11.35671,-11.49861 0,-6.379765 5.08279,-11.567201 11.35671,-11.567201 z"
       id="path1948"
       inkscape:connector-curvature="0"
       sodipodi:nodetypes="cscscscccccccsccsccsccscccsssss" />
    <text
       xml:space="preserve"
       style="font-style:normal;font-weight:normal;font-size:40px;line-height:125%;font-family:Sans;letter-spacing:0px;word-spacing:0px;fill:#000000;fill-opacity:1;stroke:none;stroke-width:1px;stroke-linecap:butt;stroke-linejoin:miter;stroke-opacity:1"
       x="12.75"
       y="66.25"
       id="text4201"
       sodipodi:linespacing="125%"><tspan
         sodipodi:role="line"
         id="tspan4203"
         x="12.75"
         y="66.25" /></text>
  </g>
  <g
     inkscape:groupmode="layer"
     id="layer4"
     inkscape:label="Telegram"
     style="display:inline">
    <g
       inkscape:label="Ebene 1"
       id="layer2-5"
       transform="matrix(0.17919966,0,0,0.17919966,31.957823,27.247134)"
       style="fill:#ffffff;fill-opacity:1">
      <path
         sodipodi:nodetypes="csssssssscssc"
         inkscape:connector-curvature="0"
         id="path4765"
         d="m 273.75134,603.26274 c 0,0 -25.58526,-0.008 -41.78705,-0.008 -38.87919,0 -70.91881,-39.33838 -71.25,-72.67857 -0.54513,-54.87705 42.96656,-81.07143 70.35714,-81.07143 31.97767,0 80.27855,0 122.5,0 64.60813,0 140.95594,-31.4733 165,-98.12763 12.42875,-34.45467 61.07143,-26.00282 61.07143,6.07143 0,42.11446 0.17857,256.66873 0.17857,338.21691 0,28.86296 -43.32507,38.46481 -57.67857,13.12501 -54.53742,-96.28087 -163.57143,-103.57143 -163.57143,-103.57143 0,0 0,0 0.35714,83.21428 0.0911,21.22191 -47.84807,43.6227 -58.21428,7.85715 -26.96295,-93.02772 -26.96295,-93.02772 -26.96295,-93.02772 z"
         style="fill:#ffffff;fill-opacity:1;fill-rule:evenodd;stroke:none;stroke-width:1px;stroke-linecap:butt;stroke-linejoin:miter;stroke-opacity:1" />
    </g>
  </g>
</svg>
