<?xml version="1.0" encoding="UTF-8" standalone="no"?>
<!-- Created with Inkscape (http://www.inkscape.org/) -->

<svg
   xmlns:dc="http://purl.org/dc/elements/1.1/"
   xmlns:cc="http://creativecommons.org/ns#"
   xmlns:rdf="http://www.w3.org/1999/02/22-rdf-syntax-ns#"
   xmlns:svg="http://www.w3.org/2000/svg"
   xmlns="http://www.w3.org/2000/svg"
   xmlns:xlink="http://www.w3.org/1999/xlink"
   xmlns:sodipodi="http://sodipodi.sourceforge.net/DTD/sodipodi-0.dtd"
   xmlns:inkscape="http://www.inkscape.org/namespaces/inkscape"
   width="461.61609mm"
   height="29.104166mm"
   viewBox="0 0 1635.6476 103.125"
   id="svg2"
   version="1.1"
   inkscape:version="0.92.4 (5da689c313, 2019-01-14)"
   inkscape:export-filename="C:\Users\Hinrich\PycharmProjects\logos\sticker-pack\png\ptb-sticker-callback-signature.png"
   inkscape:export-xdpi="28.17"
   inkscape:export-ydpi="28.17"
   sodipodi:docname="ptb-sticker-callback-signature.svg">
  <defs
     id="defs4">
    <linearGradient
       id="linearGradient4689">
      <stop
         id="stop4691"
         offset="0"
         style="stop-color:#5a9fd4;stop-opacity:1;" />
      <stop
         id="stop4693"
         offset="1"
         style="stop-color:#306998;stop-opacity:1;" />
    </linearGradient>
    <linearGradient
       y2="174.70815"
       x2="146.52715"
       y1="131.02763"
       x1="123.64119"
       id="w-4"
       gradientTransform="matrix(0.55219931,0,0,0.46315215,37.264455,41.82163)"
       gradientUnits="userSpaceOnUse">
      <stop
         id="stop12-9"
         offset="0"
         stop-color="#eff7fc" />
      <stop
         id="stop14-5"
         offset="1"
         stop-color="#fff" />
    </linearGradient>
    <linearGradient
       id="linearGradient4315">
      <stop
         style="stop-color:#ff0000;stop-opacity:1"
         offset="0"
         id="stop4311" />
      <stop
         id="stop4317"
         offset="0.1899005"
         style="stop-color:#ff00cd;stop-opacity:1" />
      <stop
         style="stop-color:#0800ff;stop-opacity:1"
         offset="0.3681244"
         id="stop4319" />
      <stop
         id="stop4321"
         offset="0.55863225"
         style="stop-color:#00fbff;stop-opacity:1" />
      <stop
         style="stop-color:#00ff14;stop-opacity:1"
         offset="0.71098751"
         id="stop4323" />
      <stop
         id="stop4325"
         offset="0.86936718"
         style="stop-color:#fff100;stop-opacity:1" />
      <stop
         style="stop-color:#ff0000;stop-opacity:1"
         offset="1"
         id="stop4313" />
    </linearGradient>
    <linearGradient
       inkscape:collect="always"
       xlink:href="#linearGradient4315"
       id="linearGradient4678"
       x1="24.82527"
       y1="173.32076"
       x2="105.66141"
       y2="173.32076"
       gradientUnits="userSpaceOnUse" />
    <linearGradient
       inkscape:collect="always"
       xlink:href="#linearGradient4689"
       id="linearGradient913"
       gradientUnits="userSpaceOnUse"
       gradientTransform="matrix(0.67079258,0,0,0.67726871,-1262.8562,927.48869)"
       x1="26.648937"
       y1="20.603781"
       x2="158.3134"
       y2="141.5517" />
    <linearGradient
       inkscape:collect="always"
       xlink:href="#w-4"
       id="linearGradient915"
       gradientUnits="userSpaceOnUse"
       gradientTransform="matrix(0.55219931,0,0,0.46315215,37.264455,41.82163)"
       x1="123.64119"
       y1="131.02763"
       x2="146.52715"
       y2="174.70815" />
    <linearGradient
       id="linearGradient4315-0">
      <stop
         style="stop-color:#ff0000;stop-opacity:1"
         offset="0"
         id="stop4311-4" />
      <stop
         id="stop4317-6"
         offset="0.20301981"
         style="stop-color:#ff00cd;stop-opacity:1" />
      <stop
         style="stop-color:#0800ff;stop-opacity:1"
         offset="0.40092269"
         id="stop4319-1" />
      <stop
         id="stop4321-2"
         offset="0.59799021"
         style="stop-color:#00fbff;stop-opacity:1" />
      <stop
         style="stop-color:#00ff14;stop-opacity:1"
         offset="0.78314376"
         id="stop4323-8" />
      <stop
         style="stop-color:#ffee5e;stop-opacity:1"
         offset="1"
         id="stop4313-8" />
    </linearGradient>
    <linearGradient
       inkscape:collect="always"
       xlink:href="#linearGradient4315-0"
       id="linearGradient866"
       x1="24.82527"
       y1="173.32076"
       x2="105.66141"
       y2="173.32076"
       gradientUnits="userSpaceOnUse" />
  </defs>
  <sodipodi:namedview
     id="base"
     pagecolor="#ffffff"
     bordercolor="#666666"
     borderopacity="1.0"
     inkscape:pageopacity="0.0"
     inkscape:pageshadow="2"
     inkscape:zoom="0.24748738"
     inkscape:cx="194.45878"
     inkscape:cy="-455.34392"
     inkscape:document-units="px"
     inkscape:current-layer="layer3"
     showgrid="false"
     height="50mm"
     inkscape:window-width="1800"
     inkscape:window-height="1059"
     inkscape:window-x="-9"
     inkscape:window-y="-9"
     inkscape:window-maximized="1" />
  <metadata
     id="metadata7">
    <rdf:RDF>
      <cc:Work
         rdf:about="">
        <dc:format>image/svg+xml</dc:format>
        <dc:type
           rdf:resource="http://purl.org/dc/dcmitype/StillImage" />
        <dc:title />
      </cc:Work>
    </rdf:RDF>
  </metadata>
  <g
     inkscape:groupmode="layer"
     id="layer3"
     inkscape:label="Text-Outline"
     transform="translate(1215.3752,-61.628928)" />
  <g
     inkscape:label="Main"
     inkscape:groupmode="layer"
     id="layer1"
     transform="translate(1215.3752,-936.82576)"
     style="display:inline;opacity:1">
    <text
       xml:space="preserve"
       style="font-size:65.56455994px;line-height:0;font-family:'Roboto Slab';-inkscape-font-specification:'Roboto Slab';opacity:1;fill:#646464;fill-opacity:1;stroke:#ffffff;stroke-width:11.53081512;stroke-linecap:round;stroke-linejoin:round;stroke-miterlimit:4;stroke-dasharray:none;stroke-dashoffset:19.90999985;stroke-opacity:0.98000004;paint-order:stroke fill markers"
       x="-1126.2197"
       y="1006.1703"
       id="text26"
       transform="scale(0.99794294,1.0020613)"
       inkscape:export-xdpi="96"
       inkscape:export-ydpi="96"><tspan
         sodipodi:role="line"
         id="tspan24"
         x="-1126.2197"
         y="1006.1703"
         style="font-size:65.16214752px;line-height:normal;letter-spacing:-2.44358039px;word-spacing:0px;fill:#646464;fill-opacity:1;stroke:#ffffff;stroke-width:11.53081512;stroke-linecap:round;stroke-linejoin:round;stroke-miterlimit:4;stroke-dasharray:none;stroke-dashoffset:19.90999985;stroke-opacity:0.98000004;paint-order:stroke fill markers">def callback(update: Update, context: CallbackContext):</tspan></text>
    <g
       style="display:none;stroke-width:17.48109055;stroke-miterlimit:4;stroke-dasharray:none;paint-order:stroke fill markers"
       id="layer2"
       inkscape:label="Python-Outline"
       transform="matrix(0.52827103,0,0,0.52827103,-1231.6009,935.42985)">
      <path
         sodipodi:nodetypes="cscscscccccccsccsccsccscccsssss"
         inkscape:connector-curvature="0"
         id="path4153"
         d="M 160.54393,161.5468 V 39.259884 c 0,-16.401855 -13.9517,-22.669911 -30.37597,-25.407306 -10.39679,-1.730693 -21.18372,-2.514772 -31.530138,-2.466693 -10.346375,0.04809 -20.227661,0.928293 -28.92155,2.466693 -25.611147,4.524631 -30.260199,13.996407 -30.260199,31.461557 v 23.065814 h 60.522642 v 7.688366 H 39.456073 v 85.478215 c -0.0038,3.85857 2.526745,6.0582 6.508473,6.05451 h 8.627509 v 11.24792 c 0,4.33326 2.603824,8.12891 7.558531,9.31573 5.679237,1.36897 9.224867,1.4297 15.154901,0 4.414088,-1.05986 7.558531,-3.59187 7.558531,-7.9251 v -12.63855 h 30.271962 v 11.24792 c 0,4.33326 2.60384,8.12891 7.55854,9.31573 5.67923,1.36897 9.22486,1.4297 15.15489,0 4.41409,-1.05986 7.55853,-3.59187 7.55853,-7.9251 v -12.63855 h 9.08159 c 3.08781,7.4e-4 6.05782,-2.61639 6.0544,-6.05424 z M 65.908566,29.936923 c 6.251536,0 11.356716,5.187436 11.356716,11.567201 0,6.357127 -5.10518,11.49861 -11.356716,11.49861 -6.273925,-1.2e-5 -11.356716,-5.141483 -11.356716,-11.49861 0,-6.379765 5.082791,-11.567201 11.356716,-11.567201 z"
         style="display:inline;fill:none;fill-opacity:1;stroke:#ffffff;stroke-width:17.48109055;stroke-miterlimit:4;stroke-dasharray:none;stroke-opacity:0.07978725;paint-order:stroke fill markers" />
    </g>
    <path
       sodipodi:nodetypes="cscscscccccccsccsccsccscccsssss"
       inkscape:connector-curvature="0"
       id="path1948"
       d="m -1146.7902,1020.7703 v -64.60059 c 0,-8.66462 -7.3703,-11.97586 -16.0467,-13.42194 -5.4924,-0.91428 -11.1908,-1.32848 -16.6565,-1.30309 -5.4657,0.0254 -10.6857,0.49039 -15.2784,1.30309 -13.5296,2.39023 -15.9856,7.39389 -15.9856,16.62023 v 12.185 h 31.9724 v 4.06154 h -31.9724 v 45.15566 c 0,2.0384 1.3348,3.2004 3.4382,3.1984 h 4.5577 v 5.942 c 0,2.2891 1.3755,4.2942 3.993,4.9212 3.0001,0.7232 4.8732,0.7553 8.0058,0 2.3319,-0.5599 3.993,-1.8975 3.993,-4.1866 v -6.6766 h 15.9918 v 5.942 c 0,2.2891 1.3755,4.2942 3.993,4.9212 3.0001,0.7232 4.8732,0.7553 8.0058,0 2.3319,-0.5599 3.993,-1.8975 3.993,-4.1866 v -6.6766 h 4.7975 c 1.6312,4e-4 3.2002,-1.3821 3.1984,-3.1983 z m -49.9931,-69.52564 c 3.3025,0 5.9994,2.74037 5.9994,6.11062 0,3.35828 -2.6969,6.07438 -5.9994,6.07438 -3.3143,-10e-6 -5.9994,-2.7161 -5.9994,-6.07438 0,-3.37025 2.6851,-6.11062 5.9994,-6.11062 z"
       style="fill:url(#linearGradient913);fill-opacity:1;stroke:#ffffff;stroke-width:9.23562241;stroke-miterlimit:4;stroke-dasharray:none;stroke-opacity:0.98000004;paint-order:stroke fill markers" />
    <g
       id="layer4"
       inkscape:label="Telegram"
       style="display:inline;stroke-width:17.48109055;stroke-miterlimit:4;stroke-dasharray:none;paint-order:stroke fill markers"
       transform="matrix(0.52827103,0,0,0.52827103,-1231.6009,935.42985)">
      <g
         style="stroke-width:14.27447319;stroke-miterlimit:4;stroke-dasharray:none;paint-order:stroke fill markers"
         id="g4305"
         transform="matrix(1.22464,0,0,1.22464,-21.767671,-7.3646984)">
        <path
           id="path18-6"
           d="m 86.824975,130.32256 c -1.966036,0 -1.631958,-0.74235 -2.310026,-2.61432 L 78.733461,108.68074 123.23678,82.2792"
           style="fill:#c8daea;stroke-width:14.27447319;stroke-miterlimit:4;stroke-dasharray:none;paint-order:stroke fill markers"
           inkscape:connector-curvature="0" />
        <path
           id="path20-9"
           d="m 86.824975,130.32256 c 1.517158,0 2.18749,-0.69385 3.034317,-1.51716 l 8.091518,-7.86799 -10.093156,-6.08633"
           style="fill:#a9c9dd;stroke-width:14.27447319;stroke-miterlimit:4;stroke-dasharray:none;paint-order:stroke fill markers"
           inkscape:connector-curvature="0" />
        <path
           id="path22-5"
           d="m 87.856642,114.8526 24.456598,18.06885 c 2.79081,1.53987 4.80504,0.7426 5.5002,-2.59105 l 9.95509,-46.91207 c 1.01923,-4.086315 -1.55766,-5.939676 -4.22751,-4.727568 L 65.084899,101.23119 c -3.990178,1.60045 -3.966915,3.82658 -0.727326,4.8185 l 15.00116,4.6821 34.729277,-21.9103 c 1.63949,-0.9942 3.14421,-0.4597 1.90919,0.6364"
           style="fill:url(#linearGradient915);stroke-width:14.27447319;stroke-miterlimit:4;stroke-dasharray:none;paint-order:stroke fill markers"
           inkscape:connector-curvature="0" />
      </g>
    </g>
  </g>
</svg>
